<svg width="328" height="329" viewBox="0 0 328 329" fill="none" xmlns="http://www.w3.org/2000/svg">
<path d="M178.235 11.0029V18.7373H170.852H163.469V67.2529V115.769H156.086H148.703V123.503V131.237H137.453H126.203V138.62V146.003H114.953H103.703V153.386V160.769H95.969H88.2346V168.503V176.237H73.469H58.7034V168.503V160.769H50.969H43.2346V153.386V146.003H35.8518H28.469V130.886V115.769H20.7346H13.0002V160.769V205.769H20.7346H28.469V213.503V221.237H35.8518H43.2346V228.62V236.003H50.969H58.7034V243.386V250.769H66.0862H73.469V258.503V266.237H80.8518H88.2346V296.12V326.003H103.352H118.469V318.62V311.237H111.086H103.703V303.503V295.769H111.086H118.469V288.386V281.003H125.852H133.235V273.62V266.237H140.969H148.703V273.62V281.003H156.086H163.469V303.503V326.003H178.586H193.703V318.62V311.237H185.969H178.235V281.003V250.769H185.969H193.703V243.386V236.003H201.086H208.469V224.753V213.503H215.852H223.235V187.136V160.769H230.969H238.703V168.503V176.237H246.086H253.469V161.12V146.003H238.352H223.235V130.886V115.769H253.469H283.703V108.386V101.003H261.203H238.703V93.6201V86.2373H276.321H313.938V52.4873V18.7373H306.203H298.469V11.0029V3.26855H238.352H178.235V11.0029ZM208.469 33.5029V41.2373H201.086H193.703V33.5029V25.7686H201.086H208.469V33.5029Z" fill="url(#paint0_linear_1204_127)" stroke="black" stroke-width="5"/>
<defs>
<linearGradient id="paint0_linear_1204_127" x1="326.938" y1="3.26856" x2="12.9377" y2="326.269" gradientUnits="userSpaceOnUse">
<stop stop-color="#EAB308"/>
<stop offset="1" stop-color="#FB923C"/>
</linearGradient>
</defs>
</svg>
