<?xml version="1.0" standalone="no"?>
<!DOCTYPE svg PUBLIC "-//W3C//DTD SVG 20010904//EN"
 "http://www.w3.org/TR/2001/REC-SVG-20010904/DTD/svg10.dtd">
<svg version="1.0" xmlns="http://www.w3.org/2000/svg"
 width="658.000000pt" height="658.000000pt" viewBox="0 0 658.000000 658.000000"
 preserveAspectRatio="xMidYMid meet">
<metadata>
Created by potrace 1.14, written by Peter Selinger 2001-2017
</metadata>
<g transform="translate(0.000000,658.000000) scale(0.100000,-0.100000)"
fill="#000000" stroke="none">
<path d="M3529 6555 c-1 -5 -2 -75 -3 -155 l-1 -145 -147 0 -148 0 0 -960 c0
-528 -4 -965 -8 -971 -4 -7 -53 -10 -137 -9 -71 1 -135 0 -141 -2 -7 -2 -10
-56 -9 -153 0 -128 -2 -150 -15 -151 -8 -1 -109 -2 -225 -3 l-210 -1 0 -148 0
-147 -226 0 -226 0 2 -137 c1 -76 0 -143 -2 -148 -2 -7 -57 -10 -146 -10 -78
0 -147 -1 -152 -2 -7 -2 -10 -55 -10 -146 1 -78 -2 -146 -6 -152 -6 -8 -407
-13 -475 -6 -7 1 -10 51 -10 151 1 93 -3 151 -9 153 -5 2 -74 3 -152 2 -79 -1
-144 3 -144 7 -1 4 -3 67 -4 138 -1 72 -3 135 -4 140 -1 6 -57 10 -146 10
l-145 0 -2 302 -3 302 -203 1 -202 0 2 -950 3 -950 150 0 150 0 5 -155 5 -155
142 0 c90 0 144 -3 146 -10 2 -5 3 -72 2 -148 l0 -137 152 0 c115 0 153 -3
154 -12 1 -7 2 -74 3 -148 l1 -135 140 -1 c77 -1 143 -2 147 -3 4 0 9 -70 10
-153 l3 -153 145 0 145 0 0 -598 0 -597 353 0 352 0 -2 197 -3 198 -145 0
-145 0 -1 103 c0 65 4 102 10 103 6 1 72 2 146 3 l135 1 3 147 3 147 147 3
147 3 1 135 c1 74 2 140 3 145 0 6 41 10 100 10 117 1 107 17 106 -168 l-2
-127 149 0 148 0 0 -450 0 -450 349 0 c324 0 349 1 353 18 3 14 3 297 -1 357
-1 20 -7 21 -147 20 -80 0 -148 2 -152 5 -10 7 -10 1093 -1 1100 4 3 73 5 153
5 141 -1 146 0 147 19 1 12 2 77 3 146 l1 125 148 3 147 3 0 223 c0 211 1 224
19 229 10 2 25 1 32 -4 7 -4 20 -4 29 1 9 5 22 5 30 0 7 -4 23 -5 34 -1 12 4
34 5 51 2 16 -4 45 -5 65 -3 l35 4 0 524 c0 288 2 525 5 525 13 3 186 5 195 2
6 -2 10 -60 9 -153 0 -97 3 -150 10 -153 10 -3 359 -1 379 2 4 0 7 159 7 351
l0 350 -300 0 c-165 0 -301 3 -301 8 -1 4 -2 116 -3 249 -1 157 2 244 9 246 5
2 277 3 602 2 394 0 594 3 596 10 2 5 3 93 2 195 l-1 185 -450 3 -451 2 1 98
1 97 750 0 750 0 0 725 0 725 -150 0 -150 0 -3 153 c-1 83 -6 153 -10 153 -4
1 -566 2 -1249 3 -825 1 -1243 -2 -1244 -9z m594 -544 c13 -2 8 -198 -5 -203
-7 -2 -51 -4 -98 -3 l-85 1 0 99 c0 55 3 102 7 105 6 5 150 5 181 1z"/>
</g>
</svg>
